<svg xmlns="http://www.w3.org/2000/svg" viewBox="0 0 89.999 90"><defs><style>.cls-3{fill:#6c5f59}.cls-5{fill:#91b55a}</style></defs><g id="mission" transform="translate(-.004)"><path id="Path_216" data-name="Path 216" d="M45 0A45 45 0 110 45 45 45 0 0145 0z" transform="translate(.004)" fill="#efeee8"/><path id="Path_209" data-name="Path 209" d="M262.933 61.572h-15.7v-10.36h15.7l-2.28 5.18z" transform="translate(-203.774 -42.21)" fill="#ff8562"/><path id="Path_217" data-name="Path 217" class="cls-3" d="M0 0h2.09v38.466H0z" transform="translate(42.13 4.79)"/><circle id="Ellipse_34" data-name="Ellipse 34" class="cls-3" cx="2.471" cy="2.471" r="2.471" transform="translate(40.704 2.673)"/><path id="Path_210" data-name="Path 210" d="M141.154 242.641a44.985 44.985 0 01-58.71-1.99l6.539-9.886 1.455-2.2 8.212-12.431.028-.042 12.439-18.792.028-.049 14.119 21.361 7.551 11.426z" transform="translate(-67.949 -162.576)" fill="#49714f"/><path id="Path_211" data-name="Path 211" class="cls-5" d="M200.569 217.934l-.877 1.361-1.55-1.908-1.549 1.908-1.549-1.908-1.535-3.149-1.549-1.907-1.549 3.169-1.549-1.908-1.535 1.908-1.55-1.908-1.549.645-1.549-.645-1.549 1.908-1.535-3.169-1.55 1.907-1.549.626-1.549 1.9-.965-1.341 12.466-18.845z" transform="translate(-143.398 -162.022)"/><path id="Path_212" data-name="Path 212" d="M78.364 361.8a44.769 44.769 0 01-23.02-11.3 45.447 45.447 0 01-5.78-6.455l1.252-1.948 7.446-11.573 5.076 7.889 3.361 5.231z" transform="translate(-40.848 -272.428)" fill="#53845a"/><path id="Path_213" data-name="Path 213" class="cls-5" d="M72.581 343.638l-.524.836-.925-1.172-.925 1.172-.925-1.172-.916-1.934-.926-1.168-.925 1.947-.925-1.171-.916 1.171-.925-1.171-.925.4-.925-.4-.925 1.171-.916-1.947-.925 1.172-.925.385-.925 1.166-.576-.824 7.445-11.578z" transform="translate(-46.733 -272.418)"/><path id="Path_214" data-name="Path 214" d="M326.175 307.974a45.063 45.063 0 01-32.491 22.254l13.24-22.057 1.441-2.4.028-.049 8.184-13.612.035-.063 9.3 15.5z" transform="translate(-242.057 -240.712)" fill="#385d3d"/><path id="Path_215" data-name="Path 215" class="cls-5" d="M394.07 306.853l-.579.987-1.021-1.384-1.021 1.384-1.021-1.384-1.012-2.286-1.021-1.384-1.021 2.3-1.021-1.384-1.012 1.384-1.021-1.384-1.021.468-1.021-.468-1.021 1.384-1.012-2.3-1.021 1.384-1.021.454-1.019 1.376-.636-.974 8.217-13.676z" transform="translate(-310.356 -240.139)"/></g></svg>