<svg id="team" xmlns="http://www.w3.org/2000/svg" viewBox="0 0 109.472 109.472"><defs><style>.cls-2{fill:#573f15}.cls-3{fill:#f9b54c}.cls-5{fill:#fff}.cls-6{fill:#ffd05b}.cls-7{fill:#e6e9ee}.cls-8{fill:#2b3b4e}.cls-9{fill:#324a5e}.cls-10{fill:#34be71}</style></defs><circle id="Ellipse_4" data-name="Ellipse 4" cx="54.736" cy="54.736" r="54.736" fill="#efeee8"/><path id="Path_77" data-name="Path 77" class="cls-2" d="M389.737 173.541a3.1 3.1 0 01-.6 1.9 13.519 13.519 0 00-6.465-1.552 12.19 12.19 0 00-6.465 1.552 3.788 3.788 0 01-.6-1.9c0-2.586 3.189-4.741 7.068-4.741s7.062 2.155 7.062 4.741z" transform="translate(-294.66 -132.424)"/><path id="Path_78" data-name="Path 78" class="cls-2" d="M378.5 205.761a32.775 32.775 0 01-1.121 8.1h-22.062c-.172-.776-.345-1.465-.517-2.241 2.069-3.707 4.31-9.827 3.189-16.378a11.949 11.949 0 018.275-2.845c6.81.003 12.236 3.71 12.236 13.364z" transform="translate(-278.342 -150.939)"/><path id="Path_79" data-name="Path 79" class="cls-3" d="M387.374 322.038s.6 3.448-3.362 6.982l-12.412-6.034a8.163 8.163 0 01.69-2.586c1.9 3.448 4.482 5.775 7.327 5.775s5.431-2.414 7.327-5.775a9.094 9.094 0 01.431 1.638z" transform="translate(-291.522 -251.355)"/><path id="Path_80" data-name="Path 80" d="M456.416 345.848a52.6 52.6 0 01-7.327 11.9l-.69-2.241c.431-1.293 2.069-8.534 1.034-13.1z" transform="translate(-351.771 -268.614)" fill="#ff8b66"/><g id="Group_90" data-name="Group 90" transform="translate(79.475 70.597)"><path id="Path_81" data-name="Path 81" class="cls-5" d="M433.338 343.892l-2.758-8.62-1.379-.69c3.965-3.534 3.362-6.982 3.362-6.982 3.878 3.017 1.292 14.568.775 16.292z" transform="translate(-416.184 -327.6)"/><path id="Path_82" data-name="Path 82" class="cls-5" d="M369.49 328c-.086.259-.086.6-.172.948l-.517-.259a2.624 2.624 0 01.689-.689z" transform="translate(-368.8 -327.914)"/></g><path id="Path_83" data-name="Path 83" class="cls-6" d="M374.622 243.454c-.776 1.552-2.069 2.241-2.931 1.724-1.983 5.086-5.172 9.051-8.878 9.051s-6.9-3.965-8.878-9.051c-.862.517-2.155-.259-2.931-1.724a6.461 6.461 0 01-.6-1.983 17.218 17.218 0 001.293-2.241 1.683 1.683 0 01.6.086l.086.086c0-.086-.345-3.276 8.1-6.723a15.428 15.428 0 006.034-3.879c.431 1.9 1.465 4.569 4.224 5.6 0 0 2.586.6 2.327 4.913a1.2 1.2 0 011.207.086c1.125.693 1.209 2.501.347 4.055z" transform="translate(-274.89 -179.494)"/><path id="Path_84" data-name="Path 84" class="cls-7" d="M329.62 376.058c-.172 1.207-.431 2.5-.6 3.879L326 370.8a11.03 11.03 0 013.62 5.258z" transform="translate(-255.748 -290.894)"/><path id="Path_85" data-name="Path 85" class="cls-3" d="M270.705 302.745s1.034 5.689-7.241 10.6l-9.4-4.569c-2.5-3.276-1.983-6.034-1.983-6.034H252a.652.652 0 01.086-.345c2.586 3.189 5.775 5.258 9.309 5.258s6.723-2.069 9.309-5.258c0 .172.086.259 0 .345z" transform="translate(-197.695 -237.234)"/><path id="Path_86" data-name="Path 86" class="cls-8" d="M363.736 341.426a54.849 54.849 0 01-19.222 15.085l-4.914-15.172c.259-1.293.431-2.586.6-3.879.086.172 2.758-9.827 1.293-15.861l18.619 8.965z" transform="translate(-266.417 -252.296)"/><g id="Group_91" data-name="Group 91" transform="translate(52.236 65.511)"><path id="Path_87" data-name="Path 87" class="cls-5" d="M313.616 323.967a10.622 10.622 0 00-3.62-5.258l-.6-1.9L305.6 315c8.275-4.913 7.241-10.6 7.241-10.6 5.085 3.793.859 19.826.775 19.567z" transform="translate(-291.981 -304.314)"/><path id="Path_88" data-name="Path 88" class="cls-5" d="M246.538 310.034l-4.138-1.983a6.62 6.62 0 012.155-4.051s-.517 2.758 1.983 6.034z" transform="translate(-242.4 -304)"/></g><path id="Path_89" data-name="Path 89" class="cls-6" d="M261.652 219.933a53.511 53.511 0 00-1.724 6.12c-2.758 3.707-6.292 6.292-10.085 6.292-3.62 0-6.982-2.241-9.654-5.6a.084.084 0 01.086.086c-2.586-3.189-3.189-7.672-3.1-11.551a32.862 32.862 0 002.069-7.758c3.448 2.586 11.378 2.758 11.378 2.758-4.051-.69-4.655-3.879-4.655-3.879.69 1.983 9.654 3.189 9.654 3.189 9.134 1.292 6.031 10.343 6.031 10.343z" transform="translate(-186.056 -161.922)"/><g id="Group_92" data-name="Group 92" transform="translate(48.616 30.282)"><path id="Path_90" data-name="Path 90" class="cls-8" d="M231.117 259.151a26.483 26.483 0 01-5.517-6.637 37.389 37.389 0 002.414-4.913c-.087 3.878.517 8.36 3.103 11.55z" transform="translate(-225.6 -224.526)"/><path id="Path_91" data-name="Path 91" class="cls-8" d="M259.329 174.46a60.375 60.375 0 011.724-6.12s3.1-9.051-6.206-10.43c0 0-8.965-1.207-9.654-3.189a5.379 5.379 0 004.655 3.879s-7.93-.172-11.378-2.758a24.789 24.789 0 00-2.069-13.792c1.81-.948 4.138-1.293 7.327-.431 0 0 12.585-5 19.05 6.379 6.895 12.153-1.725 25.341-3.449 26.462z" transform="translate(-234.073 -140.524)"/></g><path id="Path_92" data-name="Path 92" class="cls-9" d="M264.422 239.2H247.7a2.5 2.5 0 00-2.5 2.5v2.069a2.5 2.5 0 002.5 2.5h4.827a2.721 2.721 0 001.638-.6.673.673 0 00.345-.345 1.6 1.6 0 013.1 0 .673.673 0 00.345.345 2.275 2.275 0 001.638.6h4.827a2.5 2.5 0 002.5-2.5V241.7a2.5 2.5 0 00-2.498-2.5zm-16.722 5.861a1.326 1.326 0 01-1.293-1.293V241.7a1.326 1.326 0 011.293-1.293h4.913a1.326 1.326 0 011.293 1.293v2.069a1.093 1.093 0 01-.086.517c-.086.086-.086.172-.172.259a1.229 1.229 0 01-1.034.517zm8.361-2.241a2.3 2.3 0 00-1.034.259v-1.465a2.856 2.856 0 00-.345-1.293h2.845a2.245 2.245 0 00-.345 1.293v1.465a2.976 2.976 0 00-1.121-.259zm9.654.948a1.326 1.326 0 01-1.293 1.293H259.6a1.229 1.229 0 01-1.034-.517c-.086-.086-.086-.172-.172-.259a1.094 1.094 0 01-.086-.517V241.7a1.326 1.326 0 011.293-1.293h4.827a1.326 1.326 0 011.293 1.293z" transform="translate(-192.36 -187.653)"/><g id="Group_93" data-name="Group 93" transform="translate(16.723 76.631)"><path id="Path_93" data-name="Path 93" class="cls-7" d="M77.6 436.4c.086.172.259.259.345.345-.086-.086-.259-.172-.345-.345z" transform="translate(-77.6 -418.988)"/><path id="Path_94" data-name="Path 94" class="cls-7" d="M158.117 355.6c-.086 0-.172.086-.259.086s-.172-.086-.259-.086z" transform="translate(-140.36 -355.6)"/><path id="Path_95" data-name="Path 95" class="cls-7" d="M127.391 365.4a136.8 136.8 0 01-5.086 21.636 55.519 55.519 0 01-15.688-6.81A113.254 113.254 0 01103.6 365.4c2.758-8.62 11.9-9.4 11.9-9.4s9.219.776 11.891 9.4z" transform="translate(-97.997 -355.914)"/></g><path id="Path_96" data-name="Path 96" class="cls-3" d="M129.267 290.745s1.379 7.758-10.947 13.792h-.086c-12.326-6.034-10.947-13.792-10.947-13.792h-.087c0-.086.086-.259.086-.345 3.017 3.707 6.81 6.12 10.947 6.12s7.844-2.414 10.947-6.12c.086.172.172.259.086.345.087.086.087 0 .001 0z" transform="translate(-84.099 -227.82)"/><g id="Group_94" data-name="Group 94" transform="translate(29.911 76.717)"><path id="Path_98" data-name="Path 98" class="cls-10" d="M147.506 357.207l-1.465 4.224h-5.775l-1.465-4.224A15.753 15.753 0 01143.11 356a15.878 15.878 0 014.396 1.207z" transform="translate(-138.8 -356)"/></g><path id="Path_99" data-name="Path 99" class="cls-10" d="M144.326 406.715l-3.62-25.515h-5.775L132 401.8a53.354 53.354 0 0012.326 4.915z" transform="translate(-103.554 -299.053)"/><path id="Path_100" data-name="Path 100" class="cls-9" d="M40.091 346.645A54.862 54.862 0 0118.8 321.216l16.723-8.016c-1.724 7.241 1.465 18.964 1.552 18.705a136.186 136.186 0 003.016 14.74z" transform="translate(-14.749 -245.707)"/><g id="Group_95" data-name="Group 95" transform="translate(20.299 62.925)"><path id="Path_101" data-name="Path 101" class="cls-5" d="M169.747 292s1.379 7.758-10.947 13.792c0 0 9.223.69 11.9 9.4.168.254 5.167-18.537-.953-23.192z" transform="translate(-144.878 -292)"/><path id="Path_102" data-name="Path 102" class="cls-5" d="M97.172 292c-6.034 4.569-1.034 23.446-.948 23.1 2.758-8.62 11.9-9.4 11.9-9.4-12.331-5.856-10.952-13.7-10.952-13.7z" transform="translate(-94.198 -292)"/></g><path id="Path_103" data-name="Path 103" class="cls-6" d="M118.412 192.833a75.244 75.244 0 00-2.069 7.241c-3.189 4.4-7.327 7.327-11.9 7.327-4.31 0-8.189-2.672-11.378-6.637l.086.086c-6.723-8.275-2.069-23.532-2.069-23.532 3.362 3.793 14.223 4.051 14.223 4.051-4.741-.776-5.517-4.569-5.517-4.569.776 2.327 11.292 3.707 11.292 3.707 10.952 1.723 7.332 12.326 7.332 12.326z" transform="translate(-70.227 -138.7)"/><g id="Group_96" data-name="Group 96" transform="translate(12.73 21.446)"><path id="Path_104" data-name="Path 104" class="cls-9" d="M74.271 100.829s14.826-5.948 22.325 7.5c8.1 14.309-2.069 29.911-4.138 31.118a75.245 75.245 0 012.069-7.241s3.62-10.6-7.241-12.24c0 0-10.6-1.379-11.292-3.707 0 0 .776 3.793 5.517 4.569 0 0-10.861-.259-14.223-4.051 0 0-4.655 15.257 2.155 23.532 0 0-11.637-9.309-10.258-23.7-.085-.009-.685-19.745 15.086-15.78z" transform="translate(-59.073 -99.519)"/><path id="Path_105" data-name="Path 105" class="cls-9" d="M227.779 349.607a54.569 54.569 0 01-36.979 3.534 136.8 136.8 0 005.086-21.636c.172 0 3.189-11.551 1.552-18.705l21.894 10.6z" transform="translate(-162.413 -266.839)"/></g></svg>