<svg id="trees" xmlns="http://www.w3.org/2000/svg" viewBox="0 0 110.334 110.334"><defs><style>.cls-2{fill:#69be5d}.cls-3{fill:#52c883}.cls-5{fill:#00827e}.cls-6{fill:#4f6e6e}.cls-7{fill:#91b55a}.cls-8{fill:#6c5f59}.cls-9{fill:#34be71}.cls-10{fill:#805f59}.cls-12{fill:#fff}.cls-13{opacity:.6}.cls-14{fill:#9dc85c}</style></defs><g id="Group_1" data-name="Group 1"><circle id="Ellipse_3" data-name="Ellipse 3" cx="55.167" cy="55.167" r="55.167" fill="#c9ebe9"/></g><g id="Group_2" data-name="Group 2" transform="translate(69.5 32.468)"><path id="Path_1" data-name="Path 1" class="cls-2" d="M358.935 151.723a6.523 6.523 0 00-4.513 2.5 5.079 5.079 0 00-3.551.389 5.308 5.308 0 00-8.462-1.474 5.073 5.073 0 00-3.869.212 5.278 5.278 0 00-6.715-.89 5.343 5.343 0 10-1.154 8.067 5.26 5.26 0 006.194 1.3c.975 1.046 3.819 5.794 5.362 5.794 1.438 0 1.272-4.658 2.233-5.582a5.051 5.051 0 003.96-.262 5.307 5.307 0 007.812 2.011 6.361 6.361 0 006.311.236 54.772 54.772 0 00-3.608-12.301z" transform="translate(-322.512 -150.664)"/></g><g id="Group_3" data-name="Group 3" transform="translate(.792 32.467)"><path id="Path_2" data-name="Path 2" class="cls-2" d="M39.549 150.663a5.315 5.315 0 00-3.68 1.484 5.276 5.276 0 00-6.93-.355 5.264 5.264 0 00-7.4.887 5.024 5.024 0 00-3.772.306 5.58 5.58 0 00-7.752.165 6.277 6.277 0 00-2.847-.7c-.061 0-.117.016-.176.018a54.761 54.761 0 00-3.316 11.621 6.31 6.31 0 003.493 1.054c2.138 0 5.845 1.62 7 0 .526.163.916-.936 1.5-.936 1.017 0 .289-1.764 1.112-2.236a5.262 5.262 0 007.445-.851 5.1 5.1 0 004.725-.9 5.276 5.276 0 006.93-.355 5.339 5.339 0 103.68-9.2z" transform="translate(-3.674 -150.663)"/></g><g id="Group_4" data-name="Group 4" transform="translate(.006 55.413)"><path id="Path_3" data-name="Path 3" class="cls-3" d="M.029 257.143a55.161 55.161 0 00110.322 0z" transform="translate(-.029 -257.143)"/></g><g id="Group_5" data-name="Group 5" transform="translate(.006 55.413)"><path id="Path_4" data-name="Path 4" class="cls-2" d="M8.011 285.489c12.843-.887 30.072 10.088 45.455 10.088 30.558 0 34.623-11.388 49.655-11.388a54.894 54.894 0 007.23-27.047H.029a54.907 54.907 0 007.982 28.347z" transform="translate(-.029 -257.142)"/></g><g id="Group_6" data-name="Group 6" transform="translate(.006 55.413)"><path id="Path_5" data-name="Path 5" d="M6.148 282.157c13.138-.549 37.378-1.746 55.536.945 15.372 2.278 32.582.024 43.54-3.04a54.844 54.844 0 005.126-22.919H.029a54.907 54.907 0 006.119 25.014z" transform="translate(-.029 -257.143)" fill="#00a07d"/></g><g id="Group_7" data-name="Group 7" transform="translate(.006 55.413)"><path id="Path_6" data-name="Path 6" class="cls-5" d="M2.687 273.8c8.4 4.517 22.256 5.8 38.711 4.079 17.958-1.88 36.067-2.193 49.137-1.174a79.368 79.368 0 0016.2-.264 54.711 54.711 0 003.618-19.3H.029A55 55 0 002.687 273.8z" transform="translate(-.029 -257.143)"/></g><g id="Group_8" data-name="Group 8" transform="translate(106.103 55.413)"><path id="Path_7" data-name="Path 7" class="cls-6" d="M492.365 278.085q1-2.406 1.781-4.922l-.734-16.02h-.586z" transform="translate(-492.365 -257.143)"/></g><g id="Group_9" data-name="Group 9" transform="translate(3.29 56.355)"><path id="Path_8" data-name="Path 8" class="cls-6" d="M17.245 283.846l-1.024-22.335h-.569l-.387 17.583q.88 2.432 1.98 4.752z" transform="translate(-15.265 -261.511)"/></g><g id="Group_10" data-name="Group 10" transform="translate(99.612 40.63)"><path id="Path_9" data-name="Path 9" class="cls-7" d="M467.853 188.542c-1.8 0-3.463 2.249-4.808 5.211a54.8 54.8 0 00.172 19.614 7.952 7.952 0 008.717.333 55.294 55.294 0 00-.046-21.5c-1.188-2.156-2.564-3.658-4.035-3.658z" transform="translate(-462.244 -188.542)"/></g><g id="Group_11" data-name="Group 11" transform="translate(0 40.63)"><path id="Path_10" data-name="Path 10" class="cls-7" d="M.973 213.367A8.077 8.077 0 0013.7 206.75c0-4.469-3.623-18.207-8.092-18.207-1.8 0-3.463 2.249-4.808 5.211a54.8 54.8 0 00.172 19.614z" transform="translate(0 -188.542)"/></g><g id="Group_12" data-name="Group 12" transform="translate(51.002 54.644)"><path id="Path_11" data-name="Path 11" class="cls-5" d="M238.862 277.429h-2.188l.525-23.858h.569z" transform="translate(-236.674 -253.571)"/></g><g id="Group_13" data-name="Group 13" transform="translate(44.484 55.167)"><path id="Path_12" data-name="Path 12" class="cls-5" d="M208.612 279.858h-2.188l.525-23.858h.569z" transform="translate(-206.424 -256)"/></g><g id="Group_14" data-name="Group 14" transform="translate(58.537 58.066)"><path id="Path_13" data-name="Path 13" class="cls-5" d="M273.512 289.888h-1.874l.45-20.436h.487z" transform="translate(-271.638 -269.452)"/></g><g id="Group_15" data-name="Group 15" transform="translate(55.644 56.878)"><path id="Path_14" data-name="Path 14" class="cls-5" d="M260.089 284.376h-1.874l.45-20.436h.487z" transform="translate(-258.215 -263.94)"/></g><g id="Group_16" data-name="Group 16" transform="translate(67.895 58.066)"><path id="Path_15" data-name="Path 15" class="cls-5" d="M316.937 289.888h-1.874l.45-20.436H316z" transform="translate(-315.063 -269.452)"/></g><g id="Group_17" data-name="Group 17" transform="translate(86.803 57.263)"><path id="Path_16" data-name="Path 16" class="cls-5" d="M404.68 286.163h-1.874l.45-20.436h.487z" transform="translate(-402.806 -265.727)"/></g><g id="Group_18" data-name="Group 18" transform="translate(96.487 56.878)"><path id="Path_17" data-name="Path 17" class="cls-5" d="M449.619 284.376h-1.874l.45-20.436h.487z" transform="translate(-447.745 -263.94)"/></g><g id="Group_19" data-name="Group 19" transform="translate(100.797 56.355)"><path id="Path_18" data-name="Path 18" class="cls-5" d="M469.619 281.947h-1.874l.45-20.436h.487z" transform="translate(-467.745 -261.511)"/></g><g id="Group_20" data-name="Group 20" transform="translate(11.838 57.523)"><path id="Path_19" data-name="Path 19" class="cls-5" d="M56.808 287.367h-1.874l.45-20.436h.487z" transform="translate(-54.934 -266.931)"/></g><g id="Group_21" data-name="Group 21" transform="translate(6.094 57.263)"><path id="Path_20" data-name="Path 20" class="cls-5" d="M30.151 286.163h-1.874l.45-20.436h.487z" transform="translate(-28.277 -265.727)"/></g><g id="Group_22" data-name="Group 22" transform="translate(39.957 54.644)"><path id="Path_21" data-name="Path 21" class="cls-5" d="M187.607 277.429h-2.188l.525-23.858h.569z" transform="translate(-185.419 -253.571)"/></g><g id="Group_23" data-name="Group 23" transform="translate(32.481 54.644)"><path id="Path_22" data-name="Path 22" class="cls-5" d="M152.915 277.429h-2.188l.525-23.858h.569z" transform="translate(-150.727 -253.571)"/></g><g id="Group_24" data-name="Group 24" transform="translate(27.119 54.644)"><path id="Path_23" data-name="Path 23" class="cls-5" d="M128.033 277.429h-2.188l.525-23.858h.569z" transform="translate(-125.845 -253.571)"/></g><g id="Group_25" data-name="Group 25" transform="translate(19.4 54.3)"><path id="Path_24" data-name="Path 24" class="cls-5" d="M92.213 275.835h-2.188l.525-23.858h.569z" transform="translate(-90.025 -251.977)"/></g><g id="Group_26" data-name="Group 26" transform="translate(59.474 57.514)"><path id="Path_25" data-name="Path 25" class="cls-6" d="M278.174 290.751h-2.188l.525-23.858h.569z" transform="translate(-275.986 -266.893)"/></g><g id="Group_27" data-name="Group 27" transform="translate(64.589 57.08)"><path id="Path_26" data-name="Path 26" class="cls-6" d="M301.909 288.733h-2.188l.525-23.858h.569z" transform="translate(-299.721 -264.875)"/></g><g id="Group_28" data-name="Group 28" transform="translate(72.655 57.08)"><path id="Path_27" data-name="Path 27" class="cls-6" d="M339.341 288.733h-2.188l.525-23.858h.569z" transform="translate(-337.153 -264.875)"/></g><g id="Group_29" data-name="Group 29" transform="translate(79.443 56.629)"><path id="Path_28" data-name="Path 28" class="cls-6" d="M370.841 286.641h-2.188l.525-23.858h.569z" transform="translate(-368.653 -262.783)"/></g><g id="Group_30" data-name="Group 30" transform="translate(87.74 55.811)"><path id="Path_29" data-name="Path 29" class="cls-6" d="M409.341 282.848h-2.188l.525-23.858h.569z" transform="translate(-407.153 -258.99)"/></g><g id="Group_31" data-name="Group 31" transform="translate(97.424 54.634)"><path id="Path_30" data-name="Path 30" class="cls-6" d="M454.281 277.384h-2.188l.525-23.858h.569z" transform="translate(-452.093 -253.526)"/></g><g id="Group_32" data-name="Group 32" transform="translate(101.734 55.552)"><path id="Path_31" data-name="Path 31" class="cls-6" d="M474.281 281.645h-2.188l.525-23.858h.569z" transform="translate(-472.093 -257.787)"/></g><g id="Group_33" data-name="Group 33" transform="translate(13.701 56.629)"><path id="Path_32" data-name="Path 32" class="cls-6" d="M65.768 286.641H63.58l.525-23.858h.569z" transform="translate(-63.58 -262.783)"/></g><g id="Group_34" data-name="Group 34" transform="translate(7.031 57.08)"><path id="Path_33" data-name="Path 33" class="cls-6" d="M34.813 288.733h-2.188l.525-23.858h.569z" transform="translate(-32.625 -264.875)"/></g><g id="Group_35" data-name="Group 35" transform="translate(38.061 53.138)"><path id="Path_34" data-name="Path 34" class="cls-8" d="M179.608 279.194h-2.99l.718-32.612h.778z" transform="translate(-176.618 -246.582)"/></g><g id="Group_36" data-name="Group 36" transform="translate(47.191 53.138)"><path id="Path_35" data-name="Path 35" class="cls-8" d="M221.976 279.194h-2.99l.718-32.612h.777z" transform="translate(-218.986 -246.582)"/></g><g id="Group_37" data-name="Group 37" transform="translate(60.568 52.864)"><path id="Path_36" data-name="Path 36" class="cls-8" d="M284.052 277.927h-2.99l.718-32.612h.778z" transform="translate(-281.062 -245.315)"/></g><g id="Group_38" data-name="Group 38" transform="translate(68.832 52.864)"><path id="Path_37" data-name="Path 37" class="cls-8" d="M322.4 277.927h-2.99l.718-32.612h.778z" transform="translate(-319.411 -245.315)"/></g><g id="Group_39" data-name="Group 39" transform="translate(83.373 53.138)"><path id="Path_38" data-name="Path 38" class="cls-8" d="M389.88 279.194h-2.99l.718-32.612h.777z" transform="translate(-386.89 -246.582)"/></g><g id="Group_40" data-name="Group 40" transform="translate(91.599 52.173)"><path id="Path_39" data-name="Path 39" class="cls-8" d="M428.052 274.717h-2.99l.718-32.612h.777z" transform="translate(-425.062 -242.105)"/></g><g id="Group_41" data-name="Group 41" transform="translate(25.223 51.175)"><path id="Path_40" data-name="Path 40" class="cls-8" d="M120.034 270.088h-2.99l.718-32.612h.778z" transform="translate(-117.044 -237.476)"/></g><g id="Group_42" data-name="Group 42" transform="translate(20.895 57.08)"><path id="Path_41" data-name="Path 41" class="cls-6" d="M99.152 288.733h-2.188l.525-23.858h.569z" transform="translate(-96.964 -264.875)"/></g><g id="Group_43" data-name="Group 43" transform="translate(34.479 57.241)"><path id="Path_42" data-name="Path 42" class="cls-6" d="M162.188 289.484H160l.525-23.858h.569z" transform="translate(-160 -265.626)"/></g><g id="Group_44" data-name="Group 44" transform="translate(43.39 57.514)"><path id="Path_43" data-name="Path 43" class="cls-6" d="M203.536 290.751h-2.188l.525-23.858h.569z" transform="translate(-201.348 -266.893)"/></g><g id="Group_45" data-name="Group 45" transform="translate(52.349 57.514)"><path id="Path_44" data-name="Path 44" class="cls-6" d="M245.112 290.751h-2.188l.525-23.858h.569z" transform="translate(-242.924 -266.893)"/></g><g id="Group_46" data-name="Group 46" transform="translate(9.785 51.434)"><path id="Path_45" data-name="Path 45" class="cls-8" d="M48.4 271.291h-3l.718-32.612h.782z" transform="translate(-45.405 -238.679)"/></g><g id="Group_51" data-name="Group 51" transform="translate(83.969 39.651)"><g id="Group_47" data-name="Group 47"><path id="Path_46" data-name="Path 46" class="cls-9" d="M411.065 208.089a10.706 10.706 0 11-21.413 0c0-5.913 4.793-24.089 10.706-24.089s10.707 18.176 10.707 24.089z" transform="translate(-389.652 -184)"/></g><g id="Group_48" data-name="Group 48" transform="translate(9.641 26.578)"><path id="Path_47" data-name="Path 47" class="cls-10" d="M434.9 307.333l-.51 21.55h3.143l-1.063-21.55z" transform="translate(-434.389 -307.333)"/></g><g id="Group_49" data-name="Group 49" transform="translate(10.706 25.833)"><path id="Path_48" data-name="Path 48" class="cls-10" d="M439.334 307.871l4.91-3.994.589 1.079-5.5 4.91z" transform="translate(-439.334 -303.877)"/></g><g id="Group_50" data-name="Group 50" transform="translate(6.543)"><path id="Path_49" data-name="Path 49" d="M424.179 184c-1.477 0-2.883 1.134-4.163 2.926a3.157 3.157 0 011.2-.252c5.913 0 10.706 18.176 10.706 24.089a10.646 10.646 0 01-2.19 6.469 10.689 10.689 0 005.157-9.143c-.004-5.913-4.797-24.089-10.71-24.089z" transform="translate(-420.016 -184)" fill="#92e398"/></g></g><g id="Group_56" data-name="Group 56" transform="translate(5.981 37.81)"><g id="Group_52" data-name="Group 52"><path id="Path_50" data-name="Path 50" class="cls-9" d="M49.987 200.468a11.116 11.116 0 11-22.232 0c0-6.139 4.977-25.011 11.116-25.011s11.116 18.872 11.116 25.011z" transform="translate(-27.755 -175.457)"/></g><g id="Group_53" data-name="Group 53" transform="translate(10.01 27.595)"><path id="Path_51" data-name="Path 51" class="cls-10" d="M74.734 303.508l-.53 22.374h3.264l-1.1-22.374z" transform="translate(-74.204 -303.508)"/></g><g id="Group_54" data-name="Group 54" transform="translate(11.116 26.821)"><path id="Path_52" data-name="Path 52" class="cls-10" d="M79.338 304.066l5.1-4.146.612 1.12-5.71 5.1z" transform="translate(-79.338 -299.92)"/></g><g id="Group_55" data-name="Group 55" transform="translate(6.794)"><path id="Path_53" data-name="Path 53" class="cls-3" d="M63.6 175.457c-1.533 0-2.993 1.177-4.322 3.038a3.274 3.274 0 011.241-.262c6.139 0 11.116 18.872 11.116 25.011a11.053 11.053 0 01-2.274 6.717 11.1 11.1 0 005.355-9.493c.004-6.139-4.973-25.011-11.116-25.011z" transform="translate(-59.282 -175.457)"/></g></g><g id="Group_57" data-name="Group 57" transform="translate(20.71 16.992)"><path id="Path_54" data-name="Path 54" class="cls-12" d="M122.7 82.944a6.068 6.068 0 00-1.836.311 10.2 10.2 0 00-16.789 0 6.068 6.068 0 00-1.836-.311 6.138 6.138 0 00-6.139 6.138h32.737a6.138 6.138 0 00-6.137-6.138z" transform="translate(-96.104 -78.852)"/></g><g id="Group_58" data-name="Group 58" class="cls-13" transform="translate(60.803 20.961)"><path id="Path_55" data-name="Path 55" class="cls-12" d="M299.075 99.873a3.865 3.865 0 00-1.168.2 6.492 6.492 0 00-10.682 0 3.863 3.863 0 00-1.168-.2 3.905 3.905 0 00-3.905 3.905h20.828a3.905 3.905 0 00-3.905-3.905z" transform="translate(-282.152 -97.269)"/></g><g id="Group_66" data-name="Group 66" transform="translate(62.063 39.651)"><g id="Group_59" data-name="Group 59"><path id="Path_56" data-name="Path 56" class="cls-7" d="M290.848 195.845a8.529 8.529 0 01-.262-2.067 8.439 8.439 0 018.4-8.474 8.347 8.347 0 011.427.131 9.576 9.576 0 015.042-1.435 9.738 9.738 0 019.7 9.777c0 .242-.019.48-.036.718a15.518 15.518 0 11-24.268 1.349z" transform="translate(-288 -184)"/></g><g id="Group_64" data-name="Group 64" transform="translate(8.264 20.614)"><g id="Group_60" data-name="Group 60" transform="translate(5.948)"><path id="Path_57" data-name="Path 57" class="cls-10" d="M356.667 307.173h-2.716l.652-27.513h.706z" transform="translate(-353.951 -279.66)"/></g><g id="Group_61" data-name="Group 61" transform="translate(0 5.645)"><path id="Path_58" data-name="Path 58" class="cls-10" d="M333.193 310.827l-6.111-4.97-.733.408 6.844 6.111z" transform="translate(-326.349 -305.857)"/></g><g id="Group_62" data-name="Group 62" transform="translate(2.607 1.222)"><path id="Path_59" data-name="Path 59" class="cls-10" d="M343.092 288.7l-4.147-3.373-.5.276 4.644 4.147z" transform="translate(-338.448 -285.332)"/></g><g id="Group_63" data-name="Group 63" transform="translate(7.252 3.038)"><path id="Path_60" data-name="Path 60" class="cls-10" d="M360 298.728l6.111-4.97.733.408-6.844 6.11z" transform="translate(-360 -293.758)"/></g></g><g id="Group_65" data-name="Group 65" transform="translate(4.713)"><path id="Path_61" data-name="Path 61" class="cls-14" d="M332.275 194.5c.017-.238.036-.475.036-.718a9.738 9.738 0 00-9.7-9.778 9.577 9.577 0 00-5.038 1.435 8.188 8.188 0 00-7.7 2.759 8.267 8.267 0 012.829-.528 8.368 8.368 0 011.427.131 9.579 9.579 0 015.038-1.435 9.738 9.738 0 019.7 9.778c0 .242-.019.48-.036.718a15.676 15.676 0 01-1.254 22 15.676 15.676 0 004.7-24.361z" transform="translate(-309.872 -184)"/></g></g><g id="Group_74" data-name="Group 74" transform="translate(14.795 34.789)"><g id="Group_67" data-name="Group 67"><path id="Path_62" data-name="Path 62" class="cls-7" d="M99.943 174.476a9.286 9.286 0 00-10.623-11.461 10.749 10.749 0 00-16.359 9.185c0 .267.021.528.04.79a17.222 17.222 0 1026.942 1.485z" transform="translate(-68.655 -161.435)"/></g><g id="Group_69" data-name="Group 69" transform="translate(5.196)"><g id="Group_68" data-name="Group 68"><path id="Path_63" data-name="Path 63" class="cls-14" d="M118.858 174.476a9.286 9.286 0 00-10.623-11.461 10.741 10.741 0 00-15.469 4.9 10.471 10.471 0 0113.352-2.09 9.14 9.14 0 011.539-.139 9.03 9.03 0 019.063 9 8.925 8.925 0 01-.283 2.194 16.485 16.485 0 01-3.217 22.536 17.192 17.192 0 005.639-24.941z" transform="translate(-92.766 -161.435)"/></g></g><g id="Group_73" data-name="Group 73" transform="translate(9.241 20.378)"><g id="Group_70" data-name="Group 70" transform="translate(6.549)"><path id="Path_64" data-name="Path 64" class="cls-10" d="M144.916 288.612h-2.99l.718-32.612h.778z" transform="translate(-141.926 -256)"/></g><g id="Group_71" data-name="Group 71" transform="translate(0 7.099)"><path id="Path_65" data-name="Path 65" class="cls-10" d="M119.072 294.417l-6.728-5.473-.807.449 7.536 6.728z" transform="translate(-111.536 -288.944)"/></g><g id="Group_72" data-name="Group 72" transform="translate(7.984 4.228)"><path id="Path_66" data-name="Path 66" class="cls-10" d="M148.587 281.095l6.728-5.473.807.449-7.536 6.728z" transform="translate(-148.587 -275.622)"/></g></g></g><g id="Group_86" data-name="Group 86" transform="translate(34.479 24.136)"><g id="Group_75" data-name="Group 75"><path id="Path_67" data-name="Path 67" class="cls-9" d="M197.578 127.663a11.152 11.152 0 00-12.759-13.763 12.91 12.91 0 00-19.647 11.032c0 .32.025.634.048.949a20.684 20.684 0 1032.358 1.784z" transform="translate(-160 -112)"/></g><g id="Group_80" data-name="Group 80" transform="translate(2.599)"><g id="Group_77" data-name="Group 77" transform="translate(3.641)"><g id="Group_76" data-name="Group 76"><path id="Path_68" data-name="Path 68" class="cls-3" d="M220.3 127.663a11.152 11.152 0 00-12.763-13.763 12.9 12.9 0 00-18.579 5.891 12.576 12.576 0 0116.036-2.511 10.991 10.991 0 011.848-.167 10.846 10.846 0 0110.885 10.806 10.707 10.707 0 01-.34 2.636 19.8 19.8 0 01-3.864 27.067 20.649 20.649 0 006.772-29.956z" transform="translate(-188.958 -112)"/></g></g><g id="Group_79" data-name="Group 79" transform="translate(0 16.546)"><g id="Group_78" data-name="Group 78"><path id="Path_69" data-name="Path 69" class="cls-3" d="M172.7 189.065c-.007-.095-.008-.191-.014-.286-.221.348-.424.706-.625 1.067.212-.262.416-.53.639-.781z" transform="translate(-172.062 -188.779)"/></g></g></g><g id="Group_85" data-name="Group 85" transform="translate(11.098 27.26)"><g id="Group_81" data-name="Group 81" transform="translate(7.866)"><path id="Path_70" data-name="Path 70" class="cls-10" d="M251.592 274.883H248l.862-36.383h.934z" transform="translate(-248 -238.5)"/></g><g id="Group_82" data-name="Group 82" transform="translate(0 7.465)"><path id="Path_71" data-name="Path 71" class="cls-10" d="M220.551 279.716l-8.081-6.573-.97.539 9.051 8.081z" transform="translate(-211.5 -273.143)"/></g><g id="Group_83" data-name="Group 83" transform="translate(3.448 1.616)"><path id="Path_72" data-name="Path 72" class="cls-10" d="M233.642 250.46l-5.484-4.46-.658.365 6.142 5.484z" transform="translate(-227.5 -246)"/></g><g id="Group_84" data-name="Group 84" transform="translate(9.59 4.017)"><path id="Path_73" data-name="Path 73" class="cls-10" d="M256 263.716l8.081-6.573.97.539-9.051 8.081z" transform="translate(-256 -257.143)"/></g></g></g><g id="Group_87" data-name="Group 87" class="cls-13" transform="translate(44.513 8.071)"><path id="Path_74" data-name="Path 74" class="cls-12" d="M206.559 43.639a4.283 4.283 0 015.371-4.189 6.168 6.168 0 0110.71 4.189z" transform="translate(-206.559 -37.454)"/></g><g id="Group_88" data-name="Group 88" transform="translate(57.045 11.37)"><path id="Path_75" data-name="Path 75" class="cls-12" d="M274.446 56.509a2.591 2.591 0 00-3.25-2.539 3.731 3.731 0 00-6.481 2.539h9.731z" transform="translate(-264.715 -52.761)"/></g><g id="Group_89" data-name="Group 89" transform="translate(77.579 16.613)"><path id="Path_76" data-name="Path 76" class="cls-12" d="M360 81.439a3.042 3.042 0 013.039-3.044 3 3 0 01.731.1 4.328 4.328 0 017.519 2.945z" transform="translate(-360 -77.091)"/></g></svg>